<svg xmlns="http://www.w3.org/2000/svg" width="24" height="24" viewBox="0 0 24 24">
<defs>
    <style>
      .cls-1 {
        fill: #2291e6;
        fill-rule: evenodd;
      }
    </style>
  </defs>
  <path class="cls-1" d="M7862.52,1860.99c-1.19.48-13.28,5.16-13.28,5.16s-3.32,1.5-5.82-2.54l2.77-1.53a1.741,1.741,0,0,0,1.51-.06l3.12-1.03-4.7-9.3s-0.95-2.01,2.34-1.03c0,0,5.95,6.08,7.03,7.23a1.6,1.6,0,0,0,1.56,0l4.69-2.07s3.17-1.3,3.9,1.03C7866.41,1859.3,7863.71,1860.51,7862.52,1860.99Zm-19.62,1.87a9.366,9.366,0,0,1-1.46-2.91s0.25-2.24,2.34,0a19.365,19.365,0,0,0,1.66,1.47Z" transform="translate(-7841.44 -1846.425)"/>
</svg>
