<svg xmlns="http://www.w3.org/2000/svg" width="20" height="20" viewBox="0 0 20 20">
  <path d="M83.633,82.434a.538.538,0,0,1,.054.8.649.649,0,0,1-.861.054l-1.3-1.061L81.5,82.2a.613.613,0,0,0-.823.008l-.746.7a1.908,1.908,0,0,1-1.277.5h-.008a1.886,1.886,0,0,1-1.277-.485l-.777-.715a.621.621,0,0,0-.823,0l-.8.731a1.889,1.889,0,0,1-1.269.485,1.852,1.852,0,0,1-1.269-.485l-.8-.731a.621.621,0,0,0-.823,0l-.023.023L69.52,83.288a.639.639,0,0,1-.861-.046.538.538,0,0,1,.046-.8l1.254-1.054a1.905,1.905,0,0,1,2.53.008l.8.731a.621.621,0,0,0,.823,0l.8-.731a1.9,1.9,0,0,1,2.538,0l.777.715a.608.608,0,0,0,.415.161.638.638,0,0,0,.415-.161l.746-.7a1.908,1.908,0,0,1,1.277-.5h.008a1.851,1.851,0,0,1,1.254.469l1.292,1.054Zm.461-7.391-3.215,4.791a.449.449,0,0,1-.3.177,3.124,3.124,0,0,0-1.607.777.484.484,0,0,1-.654,0l-.023-.023a3.135,3.135,0,0,0-2.1-.808h-.008a3.091,3.091,0,0,0-2.1.8l-.062.054a.491.491,0,0,1-.646,0l-.062-.054a3.057,3.057,0,0,0-1.523-.746.484.484,0,0,1-.292-.177l-3.222-4.791a.51.51,0,0,1,.238-.769l2.084-.838V70.9A.573.573,0,0,1,71,70.367l3.969-1.431v-.369a1.25,1.25,0,0,1,2.492,0v.369L81.3,70.321a.566.566,0,0,1,.392.531v2.538l2.161.869a.527.527,0,0,1,.238.784Zm-3.63-3.792L76.2,69.713,71.835,71.29v1.654l3.922-1.577a1.154,1.154,0,0,1,.877,0l3.838,1.546V71.251Z" transform="translate(-68.188 -67.413)" fill="#ff9845"/>
</svg>
