<svg xmlns="http://www.w3.org/2000/svg" width="24" height="24" viewBox="0 0 24 24">
<defs>
    <style>
      .cls-1 {
        fill: #2291e6;
        fill-rule: evenodd;
      }
    </style>
  </defs>
  <path class="cls-1" d="M7911.98,1870h-3.17l-0.66-1.56h-11.34l-0.67,1.56h-3.16l3.24-4.88a2.9,2.9,0,0,1-1.57-1.13,3.209,3.209,0,0,1-.62-1.94v-11.19a2.615,2.615,0,0,1,.33-1.27,5.19,5.19,0,0,1,.82-1.09,6.164,6.164,0,0,1,.98-0.86,7.026,7.026,0,0,1,.87-0.54c0.25-.12.52-0.24,0.81-0.38a6.3,6.3,0,0,1,1.06-.36,12.824,12.824,0,0,1,1.42-.25,14.974,14.974,0,0,1,1.89-.11,17.087,17.087,0,0,1,2.16.12,11.577,11.577,0,0,1,1.63.31,7.8,7.8,0,0,1,1.23.43,10.907,10.907,0,0,1,.97.5c0.3,0.17.61,0.37,0.93,0.59a4.915,4.915,0,0,1,.89.75,3.775,3.775,0,0,1,.65.96,2.777,2.777,0,0,1,.26,1.2v11.19a3.153,3.153,0,0,1-.63,1.94,3,3,0,0,1-1.58,1.13Zm-11.81-22.33a0.7,0.7,0,0,0-.54.23,0.783,0.783,0,0,0-.22.58,0.8,0.8,0,0,0,.22.56,0.7,0.7,0,0,0,.54.23h4.67a0.7,0.7,0,0,0,.54-0.23,0.821,0.821,0,0,0,.22-0.56,0.783,0.783,0,0,0-.22-0.58,0.7,0.7,0,0,0-.54-0.23h-4.67Zm-4.61,7.99h13.82v-4.8h-13.82v4.8Zm0.78,8.31a1.007,1.007,0,0,0,.76-0.33,1.173,1.173,0,0,0,0-1.61,1.042,1.042,0,0,0-1.54,0,1.07,1.07,0,0,0-.32.81,1.086,1.086,0,0,0,.32.8A1.035,1.035,0,0,0,7896.34,1863.97Zm11.1,2.89-0.69-1.61h-8.54l-0.71,1.61h9.94Zm0.07-4.02a1.126,1.126,0,0,0,.32.8,1.073,1.073,0,0,0,.79.33,1.035,1.035,0,0,0,.78-0.33,1.173,1.173,0,0,0,0-1.61,1.015,1.015,0,0,0-.78-0.33,1.073,1.073,0,0,0-.79.33,1.115,1.115,0,0,0-.32.82v-0.01Z" transform="translate(-7890.47 -1846)"/>
</svg>
