<svg xmlns="http://www.w3.org/2000/svg" width="24" height="24" viewBox="0 0 24 24">
<defs>
    <style>
      .cls-1 {
        fill: #2291e6;
        fill-rule: evenodd;
      }
    </style>
  </defs>
  <path class="cls-1" d="M7527.61,1865.4a0.969,0.969,0,0,1,.2,1.34,6.244,6.244,0,0,1-4.88,2.26,14.721,14.721,0,0,1-4.22-.74,14.141,14.141,0,0,0-3-.61,8.065,8.065,0,0,0-2.58.4,12.7,12.7,0,0,1-3.73.58,7.635,7.635,0,0,1-5.13-2.12,0.951,0.951,0,0,1,.02-1.35,0.882,0.882,0,0,1,.67-0.27,0.947,0.947,0,0,1,.67.28,5.823,5.823,0,0,0,3,1.48l-3.23-8.24a0.956,0.956,0,0,1,.02-0.76,0.971,0.971,0,0,1,.56-0.51l9.91-3.43c0.03,0,.06-0.01.08-0.01l0.12-.03h0.22l0.12,0.03c0.03,0,.05.01,0.08,0.01l9.92,3.43a1,1,0,0,1,.56.51,1.049,1.049,0,0,1,.02.76l-3.38,8.62a4.279,4.279,0,0,0,2.66-1.44,0.9,0.9,0,0,1,.62-0.37,0.916,0.916,0,0,1,.71.18h-0.01Zm-6.61-17.44v1.28h-9.6v-1.28a0.952,0.952,0,0,1,.95-0.96h7.7a0.952,0.952,0,0,1,.95.96h0Zm-5.03,4.68c-0.02.01-.05,0.01-0.08,0.02l-7.78,2.68v-4.28a0.958,0.958,0,0,1,.95-0.96h14.28a0.958,0.958,0,0,1,.95.96v4.28l-7.78-2.69c-0.03,0-.06-0.01-0.08-0.01l-0.12-.03h-0.22l-0.12.03h0Z" transform="translate(-7504 -1847)"/>
</svg>
