<svg xmlns="http://www.w3.org/2000/svg" width="16" height="20" viewBox="0 0 16 120">
  <path d="M234.565,164.235V154.222a2.429,2.429,0,0,0-2.422-2.422h-8.721A2.429,2.429,0,0,0,221,154.222v10.013a2.428,2.428,0,0,0,2.316,2.417l-1.252,2.169a.968.968,0,0,0,1.676.968l1.81-3.133h4.718l1.808,3.133a.968.968,0,0,0,1.676-.968l-1.264-2.19A2.433,2.433,0,0,0,234.565,164.235Zm-11.406-8.915a1.584,1.584,0,0,1,1.58-1.58h6.083a1.584,1.584,0,0,1,1.58,1.58v4.268a1.584,1.584,0,0,1-1.58,1.58H224.74a1.584,1.584,0,0,1-1.58-1.58Zm1.914,9.694a.966.966,0,0,0-.465,0,.971.971,0,1,1,.465,0Zm4.614-.938a.968.968,0,1,1,1.287.91.943.943,0,0,0-.331.058A.969.969,0,0,1,229.688,164.076Z" transform="translate(-221 -151.8)" fill="#6dc8ec"/>
</svg>
